<svg width="40" height="41" viewBox="0 0 40 41" fill="none" xmlns="http://www.w3.org/2000/svg">
<rect y="0.15625" width="40" height="40" rx="20" fill="#434250"/>
<path fill-rule="evenodd" clip-rule="evenodd" d="M16.8168 13.7891C16.0636 13.7891 15.4531 14.3996 15.4531 15.1527V25.1527C15.4531 25.9058 16.0636 26.5163 16.8168 26.5163C17.5699 26.5163 18.1804 25.9058 18.1804 25.1527V15.1527C18.1804 14.3996 17.5699 13.7891 16.8168 13.7891ZM23.1839 13.7891C22.4308 13.7891 21.8203 14.3996 21.8203 15.1527V25.1527C21.8203 25.9058 22.4308 26.5163 23.1839 26.5163C23.9371 26.5163 24.5476 25.9058 24.5476 25.1527V15.1527C24.5476 14.3996 23.9371 13.7891 23.1839 13.7891Z" fill="white"/>
</svg>
