<svg width="32" height="32" viewBox="0 0 32 32" fill="none" xmlns="http://www.w3.org/2000/svg">
<rect width="32" height="32" rx="16" fill="#1D1D1D"/>
<path fill-rule="evenodd" clip-rule="evenodd" d="M19.4341 20.9497C19.8246 21.3403 20.4577 21.3403 20.8483 20.9497C21.2388 20.5592 21.2388 19.9261 20.8483 19.5355L17.3127 16L20.8483 12.4645C21.2388 12.0739 21.2388 11.4408 20.8483 11.0503C20.4577 10.6597 19.8246 10.6597 19.4341 11.0503L15.8985 14.5858L12.363 11.0503C11.9725 10.6597 11.3393 10.6597 10.9488 11.0503C10.5582 11.4408 10.5582 12.0739 10.9488 12.4645L14.4843 16L10.9488 19.5355C10.5582 19.9261 10.5582 20.5592 10.9488 20.9497C11.3393 21.3403 11.9725 21.3403 12.363 20.9497L15.8985 17.4142L19.4341 20.9497Z" fill="white"/>
</svg>
