<svg width="32" height="32" viewBox="0 0 32 32" fill="none" xmlns="http://www.w3.org/2000/svg">
<rect x="0.5" y="0.5" width="31" height="31" rx="15.5" fill="white"/>
<rect x="0.5" y="0.5" width="31" height="31" rx="15.5" stroke="#D8D8D8"/>
<g clip-path="url(#clip0_411_1653)">
<path d="M24 16C24 11.5817 20.4183 8 16 8C11.5817 8 8 11.5817 8 16C8 19.993 10.9255 23.3027 14.75 23.9028V18.3125H12.7188V16H14.75V14.2375C14.75 12.2325 15.9444 11.125 17.7717 11.125C18.6467 11.125 19.5625 11.2812 19.5625 11.2812V13.25H18.5538C17.56 13.25 17.25 13.8667 17.25 14.5V16H19.4688L19.1141 18.3125H17.25V23.9028C21.0745 23.3027 24 19.993 24 16Z" fill="#1877F2"/>
<path d="M19.1141 18.3125L19.4688 16H17.25V14.5C17.25 13.8673 17.56 13.25 18.5538 13.25H19.5625V11.2812C19.5625 11.2812 18.647 11.125 17.7717 11.125C15.9444 11.125 14.75 12.2325 14.75 14.2375V16H12.7188V18.3125H14.75V23.9028C15.5783 24.0324 16.4217 24.0324 17.25 23.9028V18.3125H19.1141Z" fill="white"/>
</g>
<defs>
<clipPath id="clip0_411_1653">
<rect width="16" height="16" fill="white" transform="translate(8 8)"/>
</clipPath>
</defs>
</svg>
