<svg xmlns="http://www.w3.org/2000/svg" width="16" height="16" viewBox="0 0 16 16" fill="none">
    <g clip-path="url(#clip0_411_1374)">
        <path d="M1 6.64454C1 6.18464 1 5.95469 1.05758 5.74293C1.10858 5.55535 1.1924 5.37892 1.30491 5.22231C1.43193 5.04551 1.60824 4.90433 1.96086 4.62198L7.23599 0.39808C7.50924 0.179281 7.64586 0.0698819 7.79673 0.0278291C7.92985 -0.00927635 8.07015 -0.00927635 8.20327 0.0278291C8.35414 0.0698819 8.49076 0.179281 8.76402 0.398081L14.0391 4.62198C14.3918 4.90433 14.5681 5.04551 14.6951 5.22231C14.8076 5.37892 14.8914 5.55535 14.9424 5.74293C15 5.95469 15 6.18464 15 6.64454V12.4377C15 13.3346 15 13.783 14.8305 14.1256C14.6813 14.4269 14.4433 14.6719 14.1507 14.8255C13.8179 15 13.3823 15 12.5111 15H3.48889C2.6177 15 2.1821 15 1.84935 14.8255C1.55665 14.6719 1.31868 14.4269 1.16955 14.1256C1 13.783 1 13.3346 1 12.4377V6.64454Z" fill="#C6C6C6"/>
        <path d="M6.25 10.9148V9.0514V7.18802M9.75 10.9148V9.0514V7.18802M9.3125 9.0514H8H6.6875M7.23599 0.39808L1.96086 4.62198C1.60824 4.90433 1.43193 5.04551 1.30491 5.22231C1.1924 5.37892 1.10858 5.55535 1.05758 5.74293C1 5.95469 1 6.18464 1 6.64454V12.4377C1 13.3346 1 13.783 1.16955 14.1256C1.31868 14.4269 1.55665 14.6719 1.84935 14.8255C2.1821 15 2.6177 15 3.48889 15H12.5111C13.3823 15 13.8179 15 14.1507 14.8255C14.4433 14.6719 14.6813 14.4269 14.8305 14.1256C15 13.783 15 13.3346 15 12.4377V6.64454C15 6.18464 15 5.95469 14.9424 5.74293C14.8914 5.55535 14.8076 5.37892 14.6951 5.22231C14.5681 5.04551 14.3918 4.90433 14.0391 4.62198L8.76402 0.398081C8.49076 0.179281 8.35414 0.0698819 8.20327 0.0278291C8.07015 -0.00927635 7.92985 -0.00927635 7.79673 0.0278291C7.64586 0.0698819 7.50924 0.179281 7.23599 0.39808Z" stroke="white" stroke-width="1.5" stroke-linecap="round" stroke-linejoin="round"/>
    </g>
    <defs>
        <clipPath id="clip0_411_1374">
            <rect width="16" height="16" fill="white"/>
        </clipPath>
    </defs>
</svg>