<svg width="166" height="36" viewBox="0 0 166 36" fill="none" xmlns="http://www.w3.org/2000/svg">
<path d="M10.8928 1.75V11.144H9.85884V6.557H8.32984V10.979H7.29584V1.805H8.32984V5.534H9.85884V1.75H10.8928ZM4.42484 9.615C4.82817 9.615 5.2205 9.58567 5.60184 9.527C5.9905 9.461 6.32784 9.36933 6.61384 9.252V10.209C6.3425 10.3263 5.99784 10.418 5.57984 10.484C5.16184 10.55 4.7365 10.583 4.30384 10.583H2.14784V2.091H6.20684V3.059H3.21484V9.615H4.42484ZM39.8219 2.993H32.8589V1.97H40.9549V6.26H39.8219V2.993ZM41.6259 8.075H37.4349V11.364H36.3129V8.075H32.2429V7.041H41.6259V8.075ZM68.7069 3.499H62.6459V2.63H65.2859V1.585H66.3859V2.63H68.7069V3.499ZM71.4679 1.75V7.734H70.3899V6.513H68.9709V5.589H70.3899V4.456H68.9709V3.532H70.3899V1.75H71.4679ZM65.8139 7.646C65.3006 7.646 64.8349 7.57633 64.4169 7.437C63.9989 7.29033 63.6689 7.08133 63.4269 6.81C63.1923 6.53867 63.0749 6.21233 63.0749 5.831C63.0749 5.457 63.1959 5.13433 63.4379 4.863C63.6799 4.58433 64.0063 4.37533 64.4169 4.236C64.8349 4.08933 65.3006 4.016 65.8139 4.016C66.3346 4.016 66.8003 4.08933 67.2109 4.236C67.6289 4.37533 67.9589 4.58433 68.2009 4.863C68.4429 5.13433 68.5639 5.457 68.5639 5.831C68.5639 6.39567 68.3036 6.83933 67.7829 7.162C67.2696 7.48467 66.6133 7.646 65.8139 7.646ZM65.8139 4.841C65.3006 4.841 64.8899 4.93633 64.5819 5.127C64.2739 5.31033 64.1199 5.545 64.1199 5.831C64.1199 6.12433 64.2703 6.36633 64.5709 6.557C64.8789 6.74033 65.2933 6.832 65.8139 6.832C66.3346 6.832 66.7489 6.74033 67.0569 6.557C67.3649 6.36633 67.5189 6.12433 67.5189 5.831C67.5189 5.545 67.3649 5.31033 67.0569 5.127C66.7489 4.93633 66.3346 4.841 65.8139 4.841ZM63.3829 8.251H71.4349V11.144H70.3349V9.186H63.3829V8.251ZM101.772 8.724H100.683V1.75H101.772V8.724ZM96.305 5.105C95.9457 5.71367 95.4947 6.21233 94.952 6.601C94.4093 6.98233 93.808 7.217 93.148 7.305V6.282C93.7273 6.17933 94.2333 5.91533 94.666 5.49C95.106 5.06467 95.4433 4.533 95.678 3.895C95.92 3.257 96.0447 2.57133 96.052 1.838L97.141 1.904C97.141 2.70333 97.0053 3.466 96.734 4.192L99.748 6.414L99.099 7.206L96.305 5.105ZM102.025 10.055V11.023H93.808V8.031H94.908V10.055H102.025ZM132.769 9.681V10.693H123.386V9.681H127.511V7.404H124.002V2.091H132.153V3.103H125.113V6.392H132.263V7.404H128.622V9.681H132.769ZM162.534 1.75V11.144H161.445V1.75H162.534ZM157.969 2.025C157.954 3.49167 157.83 4.77867 157.595 5.886L160.631 9.934L159.751 10.561L157.254 7.151C156.902 8.19967 156.444 9.021 155.879 9.615C155.314 10.209 154.665 10.5317 153.932 10.583V9.483C154.541 9.38767 155.065 8.999 155.505 8.317C155.945 7.62767 156.279 6.733 156.506 5.633C156.733 4.533 156.851 3.31567 156.858 1.981L157.969 2.025Z" fill="#3F3B3A"/>
<path d="M18.26 24.3V26.98H0.98V24.3H7.94V23.32H2.02V16H5.32V17.2H13.92V16H17.22V23.32H11.3V24.3H18.26ZM5.32 20.82H13.92V19.64H5.32V20.82ZM1.9 27.82H17.26V33.28H13.84V30.46H1.9V27.82ZM30.7383 19.44H19.0583V17H23.1783V15.7H26.6183V17H30.7383V19.44ZM37.2583 22.06H35.2583V25.66H31.8783V16H35.2583V18.9H37.2583V22.06ZM24.8983 25.94C23.4183 25.94 22.1783 25.6733 21.1783 25.14C20.1916 24.6067 19.6983 23.86 19.6983 22.9C19.6983 21.94 20.1916 21.1933 21.1783 20.66C22.1783 20.1267 23.4183 19.86 24.8983 19.86C26.3783 19.86 27.6116 20.1267 28.5983 20.66C29.5849 21.1933 30.0783 21.94 30.0783 22.9C30.0783 23.86 29.5849 24.6067 28.5983 25.14C27.6116 25.6733 26.3783 25.94 24.8983 25.94ZM24.8983 22.16C24.2716 22.16 23.7783 22.2267 23.4183 22.36C23.0583 22.48 22.8783 22.66 22.8783 22.9C22.8783 23.14 23.0583 23.3267 23.4183 23.46C23.7783 23.58 24.2716 23.64 24.8983 23.64C25.5249 23.64 26.0183 23.58 26.3783 23.46C26.7383 23.3267 26.9183 23.14 26.9183 22.9C26.9183 22.66 26.7383 22.48 26.3783 22.36C26.0183 22.2267 25.5249 22.16 24.8983 22.16ZM31.9783 26.26H35.2583V33.08H20.1783V26.26H23.4583V27.22H31.9783V26.26ZM31.9783 30.56V29.6H23.4583V30.56H31.9783ZM48.4966 19.66H37.3966V17.08H41.5166V15.7H44.9566V17.08H48.4966V19.66ZM54.0566 16V26.84H50.7366V25.26H49.0766V22.44H50.7366V21.26H49.0766V18.44H50.7366V16H54.0566ZM43.1766 26.84C41.6966 26.84 40.4699 26.5467 39.4966 25.96C38.5232 25.36 38.0366 24.5267 38.0366 23.46C38.0366 22.7533 38.2632 22.1467 38.7166 21.64C39.1699 21.12 39.7832 20.7333 40.5566 20.48C41.3432 20.2133 42.2166 20.08 43.1766 20.08C44.1366 20.08 45.0032 20.2133 45.7766 20.48C46.5632 20.7333 47.1832 21.12 47.6366 21.64C48.0899 22.1467 48.3166 22.7533 48.3166 23.46C48.3166 24.5267 47.8299 25.36 46.8566 25.96C45.8832 26.5467 44.6566 26.84 43.1766 26.84ZM43.1766 22.48C42.5766 22.48 42.1032 22.5733 41.7566 22.76C41.4099 22.9333 41.2366 23.1667 41.2366 23.46C41.2366 23.7533 41.4099 23.9933 41.7566 24.18C42.1032 24.3533 42.5766 24.44 43.1766 24.44C43.7766 24.44 44.2499 24.3533 44.5966 24.18C44.9432 23.9933 45.1166 23.7533 45.1166 23.46C45.1166 23.1667 44.9432 22.9333 44.5966 22.76C44.2499 22.5733 43.7766 22.48 43.1766 22.48ZM38.6966 27.44H54.0566V33.28H50.6166V30.26H38.6966V27.44ZM72.2148 28.64H68.8348V16H72.2148V28.64ZM61.8748 22.86C61.1282 23.8867 60.2415 24.7067 59.2148 25.32C58.1882 25.9333 57.0882 26.2667 55.9148 26.32V23.18C56.7948 23.0733 57.5815 22.7 58.2748 22.06C58.9815 21.4067 59.5348 20.56 59.9348 19.52C60.3348 18.4667 60.5415 17.32 60.5548 16.08L63.9548 16.28C63.9548 17.64 63.7282 18.9467 63.2748 20.2L68.1948 23.68L66.2148 26.08L61.8748 22.86ZM72.4548 30.04V33.08H56.9348V27.1H60.3748V30.04H72.4548ZM90.9331 28.66H87.7731V16H90.9331V28.66ZM78.4531 23.64C77.8931 24.5733 77.2198 25.3067 76.4331 25.84C75.6465 26.36 74.7998 26.6267 73.8931 26.64V23.5C74.4665 23.42 74.9931 23.0733 75.4731 22.46C75.9531 21.8333 76.3265 20.98 76.5931 19.9C76.8731 18.8067 77.0131 17.5533 77.0131 16.14L80.2131 16.26C80.2131 17.8067 80.0331 19.2667 79.6731 20.64L83.3731 24.2V21.34H81.2931V18.26H83.3731V16.08H86.4931V28.36H83.3731V24.52L81.2931 26.5L78.4531 23.64ZM91.1331 30.04V33.08H75.2131V27.4H78.6531V30.04H91.1331ZM108.771 16V33.08H105.391V25.48H102.951V22.32H105.391V16H108.771ZM99.4714 29.18C100.285 29.18 101.091 29.1067 101.891 28.96C102.705 28.8133 103.371 28.6133 103.891 28.36V31.46C103.385 31.7133 102.731 31.9133 101.931 32.06C101.131 32.2067 100.311 32.28 99.4714 32.28H92.8514V16.4H102.671V19.5H96.2314V22.74H101.871V25.82H96.2314V29.18H99.4714ZM127.69 29.34V32.48H110.41V29.34H117.35V26.52H111.35V16.4H126.75V19.54H114.81V23.4H126.95V26.52H120.79V29.34H127.69ZM145.248 16V33.08H141.868V24.68H138.268V21.52H141.868V16H145.248ZM136.428 16.46C136.428 18.7267 136.268 20.78 135.948 22.62L140.908 30.46L138.008 32.26L134.788 26.86C134.095 28.5933 133.221 29.9267 132.168 30.86C131.115 31.7933 129.941 32.2667 128.648 32.28V28.76C129.515 28.6667 130.275 28.0867 130.928 27.02C131.581 25.94 132.088 24.48 132.448 22.64C132.808 20.8 132.988 18.7 132.988 16.34L136.428 16.46ZM164.926 19.8V22.98H162.966V28.94H159.586V16H162.966V19.8H164.926ZM154.206 18.98H147.526V16.12H157.566V22.64H154.206V18.98ZM158.606 25.88C157.66 26.2933 156.166 26.5 154.126 26.5H146.886V23.68H149.246V20.52H152.586V23.68H154.186C155.066 23.68 155.9 23.6333 156.686 23.54C157.473 23.4333 158.113 23.2733 158.606 23.06V25.88ZM151.306 30.2H163.206V33.08H147.886V27.7H151.306V30.2Z" fill="#3F3B3A"/>
</svg>
