<svg width="40" height="40" viewBox="0 0 40 40" fill="none" xmlns="http://www.w3.org/2000/svg">
<rect x="0.454545" y="0.454545" width="39.0909" height="39.0909" rx="19.5455" fill="white"/>
<rect x="0.454545" y="0.454545" width="39.0909" height="39.0909" rx="19.5455" stroke="#D8D8D8" stroke-width="0.909091"/>
<path fill-rule="evenodd" clip-rule="evenodd" d="M15.4538 12.7266C13.9476 12.7266 12.7266 13.9476 12.7266 15.4538C12.7266 16.9601 13.9476 18.1811 15.4538 18.1811C16.9601 18.1811 18.1811 16.9601 18.1811 15.4538C18.1811 13.9476 16.9601 12.7266 15.4538 12.7266ZM15.4538 21.8203C13.9476 21.8203 12.7266 23.0414 12.7266 24.5476C12.7266 26.0538 13.9476 27.2749 15.4538 27.2749C16.9601 27.2749 18.1811 26.0538 18.1811 24.5476C18.1811 23.0414 16.9601 21.8203 15.4538 21.8203ZM21.8203 15.4538C21.8203 13.9476 23.0414 12.7266 24.5476 12.7266C26.0538 12.7266 27.2749 13.9476 27.2749 15.4538C27.2749 16.9601 26.0538 18.1811 24.5476 18.1811C23.0414 18.1811 21.8203 16.9601 21.8203 15.4538ZM24.5476 21.8203C23.0414 21.8203 21.8203 23.0414 21.8203 24.5476C21.8203 26.0538 23.0414 27.2749 24.5476 27.2749C26.0538 27.2749 27.2749 26.0538 27.2749 24.5476C27.2749 23.0414 26.0538 21.8203 24.5476 21.8203Z" fill="#434250"/>
</svg>
