<svg xmlns="http://www.w3.org/2000/svg" width="20" height="20" viewBox="0 0 20 20" fill="none">
    <g clip-path="url(#clip0_208_6974)">
        <path fill-rule="evenodd" clip-rule="evenodd" d="M10 0C9.53976 0 9.16667 0.373096 9.16667 0.833334V9.16667H0.833333C0.373096 9.16667 0 9.53976 0 10C0 10.4602 0.373096 10.8333 0.833334 10.8333H9.16667V19.1667C9.16667 19.6269 9.53976 20 10 20C10.4602 20 10.8333 19.6269 10.8333 19.1667V10.8333H19.1667C19.6269 10.8333 20 10.4602 20 10C20 9.53976 19.6269 9.16667 19.1667 9.16667H10.8333V0.833333C10.8333 0.373096 10.4602 0 10 0Z" fill="#717171"/>
    </g>
    <defs>
        <clipPath id="clip0_208_6974">
            <rect width="20" height="20" fill="white"/>
        </clipPath>
    </defs>
</svg>