<svg width="40" height="40" viewBox="0 0 40 40" fill="none" xmlns="http://www.w3.org/2000/svg">
<rect x="0.454545" y="0.454545" width="39.0909" height="39.0909" rx="19.5455" fill="white"/>
<rect x="0.454545" y="0.454545" width="39.0909" height="39.0909" rx="19.5455" stroke="#D8D8D8" stroke-width="0.909091"/>
<path fill-rule="evenodd" clip-rule="evenodd" d="M16.8168 13.6406C16.0636 13.6406 15.4531 14.2511 15.4531 15.0043V25.0043C15.4531 25.7574 16.0636 26.3679 16.8168 26.3679C17.5699 26.3679 18.1804 25.7574 18.1804 25.0043V15.0043C18.1804 14.2511 17.5699 13.6406 16.8168 13.6406ZM23.1839 13.6406C22.4308 13.6406 21.8203 14.2511 21.8203 15.0043V25.0043C21.8203 25.7574 22.4308 26.3679 23.1839 26.3679C23.9371 26.3679 24.5476 25.7574 24.5476 25.0043V15.0043C24.5476 14.2511 23.9371 13.6406 23.1839 13.6406Z" fill="#434250"/>
</svg>
