<svg xmlns="http://www.w3.org/2000/svg" width="32" height="32" viewBox="0 0 32 32" fill="none">
    <rect x="0.5" y="0.5" width="31" height="31" rx="15.5" stroke="white"/>
    <path d="M22 11.25C22 12.4926 20.9926 13.5 19.75 13.5C19.2054 13.5 18.706 13.3065 18.3168 12.9846L14.4553 15.3015C14.4846 15.4464 14.5 15.5964 14.5 15.75C14.5 15.9036 14.4846 16.0536 14.4553 16.1985L18.3168 18.5154C18.706 18.1935 19.2054 18 19.75 18C20.9926 18 22 19.0074 22 20.25C22 21.4926 20.9926 22.5 19.75 22.5C18.5074 22.5 17.5 21.4926 17.5 20.25C17.5 20.0964 17.5154 19.9464 17.5447 19.8014L13.6832 17.4845C13.294 17.8065 12.7946 18 12.25 18C11.0074 18 10 16.9926 10 15.75C10 14.5074 11.0074 13.5 12.25 13.5C12.7946 13.5 13.294 13.6935 13.6832 14.0155L17.5447 11.6986C17.5154 11.5536 17.5 11.4036 17.5 11.25C17.5 10.0074 18.5074 9 19.75 9C20.9926 9 22 10.0074 22 11.25Z" fill="white"/>
</svg>