<svg xmlns="http://www.w3.org/2000/svg" width="24" height="24" viewBox="0 0 24 24" fill="none">
    <rect x="-0.5" y="-0.5" width="23" height="23" rx="11.5" transform="matrix(4.37114e-08 -1 -1 -4.37114e-08 23 23)" stroke="white" stroke-opacity="0.4"/>
    <path fill-rule="evenodd" clip-rule="evenodd" d="M9 7C8.44772 7 8 7.44772 8 8V16C8 16.5523 8.44772 17 9 17C9.55228 17 10 16.5523 10 16V8C10 7.44772 9.55228 7 9 7ZM15 7C14.4477 7 14 7.44772 14 8V16C14 16.5523 14.4477 17 15 17C15.5523 17 16 16.5523 16 16V8C16 7.44772 15.5523 7 15 7Z" fill="white"/>
</svg>