<svg width="413" height="129" viewBox="0 0 413 129" fill="none" xmlns="http://www.w3.org/2000/svg">
<g filter="url(#filter0_d_208_6848)">
<path d="M49.6094 56.6934H44.0195V32.3828H38.6406V54.2676H33.2617V9.91797H38.6406V27.6895H44.0195V9.02148H49.6094V56.6934ZM10.0586 14.6641H27.8828V19.4102H15.9648V40.6094C18.7246 40.5742 21.2207 40.4688 23.4531 40.293C25.6855 40.1172 27.9531 39.8184 30.2559 39.3965L30.6777 44.1953C28.0234 44.7227 25.4131 45.0742 22.8467 45.25C20.2979 45.4258 17.1074 45.5312 13.2754 45.5664H10.0586V14.6641ZM90.6789 16.1934C90.6613 19.3223 90.5822 22.0469 90.4416 24.3672C90.301 26.6699 89.9582 29.3066 89.4133 32.2773H96.0051V37.0234H77.0734V56.7461H71.1672V37.0234H52.552V32.2773H83.4543C84.0344 29.3945 84.4035 26.7754 84.5617 24.4199C84.7375 22.0645 84.8254 19.4805 84.8254 16.668H57.6672V11.9219H90.6789V16.1934ZM123.258 18.0391H96.6273V13.3984H107.28V8.59961H113.133V13.3984H123.258V18.0391ZM99.1059 29.166C99.1059 27.4082 99.5805 25.8438 100.53 24.4727C101.479 23.084 102.788 22.0117 104.458 21.2559C106.146 20.4824 108.036 20.0957 110.127 20.0957C112.254 20.0957 114.162 20.4824 115.849 21.2559C117.554 22.0117 118.89 23.084 119.857 24.4727C120.824 25.8438 121.307 27.4082 121.307 29.166C121.307 30.8887 120.824 32.4355 119.857 33.8066C118.89 35.1602 117.554 36.2324 115.849 37.0234C114.162 37.7969 112.254 38.1836 110.127 38.1836C108.036 38.1836 106.146 37.7969 104.458 37.0234C102.788 36.2324 101.479 35.1602 100.53 33.8066C99.5805 32.4355 99.1059 30.8887 99.1059 29.166ZM103.957 41.7168H136.442V56.6934H130.588V46.3574H103.957V41.7168ZM104.59 29.166C104.59 30.0625 104.819 30.8535 105.276 31.5391C105.75 32.207 106.401 32.7256 107.227 33.0947C108.071 33.4639 109.037 33.6484 110.127 33.6484C111.217 33.6484 112.193 33.4639 113.054 33.0947C113.915 32.7256 114.592 32.207 115.084 31.5391C115.577 30.8535 115.823 30.0625 115.823 29.166C115.823 28.2344 115.577 27.417 115.084 26.7139C114.61 26.0107 113.933 25.4746 113.054 25.1055C112.193 24.7187 111.217 24.5254 110.127 24.5254C108.475 24.5254 107.13 24.9473 106.093 25.791C105.074 26.6348 104.573 27.7598 104.59 29.166ZM123.522 29.166H130.588V24.7363H123.575V20.0957H130.588V9.02148H136.442V39.291H130.588V33.9121H123.522V29.166ZM180.201 43.8789H174.295V9.07422H180.201V43.8789ZM140.545 32.6465C143.041 31.7676 145.168 30.4932 146.925 28.8232C148.683 27.1357 150.002 25.2197 150.88 23.0752C151.777 20.9131 152.216 18.6719 152.199 16.3516V11.7109H158.263V16.3516C158.246 18.6016 158.668 20.7461 159.529 22.7852C160.408 24.8242 161.709 26.6348 163.431 28.2168C165.154 29.7812 167.246 30.9766 169.707 31.8027L166.701 36.4434C164.029 35.5117 161.726 34.1406 159.793 32.3301C157.859 30.502 156.356 28.3486 155.284 25.8701C154.212 28.542 152.682 30.8623 150.696 32.8311C148.71 34.7998 146.345 36.2852 143.603 37.2871L140.545 32.6465ZM148.666 40.5566H154.572V50.998H181.519V55.7441H148.666V40.5566ZM223.169 35.3359H209.036V46.252H228.02V51.0508H184.462V46.252H203.235V35.3359H189.735V12.5547H222.8V17.248H195.589V30.6953H223.169V35.3359ZM246.467 20.4648C246.449 23.4004 246.933 26.2568 247.917 29.0342C248.901 31.8115 250.325 34.2812 252.188 36.4434C254.052 38.6055 256.24 40.2227 258.754 41.2949L255.273 45.9883C252.584 44.7402 250.237 42.9297 248.233 40.5566C246.247 38.166 244.691 35.3799 243.566 32.1982C242.441 35.626 240.851 38.6318 238.794 41.2158C236.755 43.7998 234.32 45.7598 231.49 47.0957L227.904 42.1914C230.488 41.084 232.729 39.4141 234.628 37.1816C236.526 34.9316 237.977 32.3564 238.979 29.4561C239.98 26.5557 240.49 23.5586 240.508 20.4648V12.8711H246.467V20.4648ZM262.182 9.02148H268.088V56.7461H262.182V9.02148ZM52.0352 101.709H8.58203V97.0156H27.3027V92.4277H14.2246V74.1816H20.0254V78.9277H40.5918V74.1816H46.3926V92.4277H33.209V97.0156H52.0352V101.709ZM13.3809 105.506H46.709V120.693H40.8555V110.146H13.3809V105.506ZM40.5918 87.7344V83.3047H20.0254V87.7344H40.5918ZM90.1516 84.7812H96.7961V89.6328H90.1516V100.865H84.298V73.0215H90.1516V84.7812ZM52.6047 77.4512H63.8371V72.6523H69.6906V77.4512H80.8703V82.1445H52.6047V77.4512ZM55.0305 92.1641C55.0305 90.4941 55.5227 89.0264 56.507 87.7607C57.4914 86.4951 58.8625 85.5195 60.6203 84.834C62.3957 84.1309 64.4348 83.7793 66.7375 83.7793C69.0051 83.7793 71.0178 84.1309 72.7756 84.834C74.551 85.5195 75.9309 86.4951 76.9152 87.7607C77.8996 89.0264 78.3918 90.4941 78.3918 92.1641C78.3918 93.834 77.8996 95.3018 76.9152 96.5674C75.9309 97.833 74.551 98.8174 72.7756 99.5205C71.0178 100.206 69.0051 100.549 66.7375 100.549C64.4348 100.549 62.3957 100.206 60.6203 99.5205C58.8625 98.835 57.4914 97.8594 56.507 96.5938C55.5227 95.3105 55.0305 93.834 55.0305 92.1641ZM59.3547 102.764H65.1555V106.877H84.298V102.764H90.1516V120.113H59.3547V102.764ZM60.7258 92.1641C60.7082 93.4297 61.2443 94.4229 62.3342 95.1436C63.4416 95.8643 64.9094 96.2246 66.7375 96.2246C68.5656 96.2246 70.0334 95.8643 71.1408 95.1436C72.2482 94.4229 72.802 93.4297 72.802 92.1641C72.802 90.916 72.2482 89.9316 71.1408 89.2109C70.0334 88.4727 68.5656 88.1035 66.7375 88.1035C64.9094 88.1035 63.4416 88.4727 62.3342 89.2109C61.2443 89.9316 60.7082 90.916 60.7258 92.1641ZM84.298 115.473V111.412H65.1555V115.473H84.298ZM123.258 82.0391H96.6273V77.3984H107.28V72.5996H113.133V77.3984H123.258V82.0391ZM99.1059 93.166C99.1059 91.4082 99.5805 89.8438 100.53 88.4727C101.479 87.084 102.788 86.0117 104.458 85.2559C106.146 84.4824 108.036 84.0957 110.127 84.0957C112.254 84.0957 114.162 84.4824 115.849 85.2559C117.554 86.0117 118.89 87.084 119.857 88.4727C120.824 89.8438 121.307 91.4082 121.307 93.166C121.307 94.8887 120.824 96.4355 119.857 97.8066C118.89 99.1602 117.554 100.232 115.849 101.023C114.162 101.797 112.254 102.184 110.127 102.184C108.036 102.184 106.146 101.797 104.458 101.023C102.788 100.232 101.479 99.1602 100.53 97.8066C99.5805 96.4355 99.1059 94.8887 99.1059 93.166ZM103.957 105.717H136.442V120.693H130.588V110.357H103.957V105.717ZM104.59 93.166C104.59 94.0625 104.819 94.8535 105.276 95.5391C105.75 96.207 106.401 96.7256 107.227 97.0947C108.071 97.4639 109.037 97.6484 110.127 97.6484C111.217 97.6484 112.193 97.4639 113.054 97.0947C113.915 96.7256 114.592 96.207 115.084 95.5391C115.577 94.8535 115.823 94.0625 115.823 93.166C115.823 92.2344 115.577 91.417 115.084 90.7139C114.61 90.0107 113.933 89.4746 113.054 89.1055C112.193 88.7188 111.217 88.5254 110.127 88.5254C108.475 88.5254 107.13 88.9473 106.093 89.791C105.074 90.6348 104.573 91.7598 104.59 93.166ZM123.522 93.166H130.588V88.7363H123.575V84.0957H130.588V73.0215H136.442V103.291H130.588V97.9121H123.522V93.166ZM180.201 107.879H174.295V73.0742H180.201V107.879ZM140.545 96.6465C143.041 95.7676 145.168 94.4932 146.925 92.8232C148.683 91.1357 150.002 89.2197 150.88 87.0752C151.777 84.9131 152.216 82.6719 152.199 80.3516V75.7109H158.263V80.3516C158.246 82.6016 158.668 84.7461 159.529 86.7852C160.408 88.8242 161.709 90.6348 163.431 92.2168C165.154 93.7812 167.246 94.9766 169.707 95.8027L166.701 100.443C164.029 99.5117 161.726 98.1406 159.793 96.3301C157.859 94.502 156.356 92.3486 155.284 89.8701C154.212 92.542 152.682 94.8623 150.696 96.8311C148.71 98.7998 146.345 100.285 143.603 101.287L140.545 96.6465ZM148.666 104.557H154.572V114.998H181.519V119.744H148.666V104.557ZM225.225 108.723H219.636V73.0215H225.225V108.723ZM184.145 97.8594C186.184 96.875 187.898 95.5742 189.287 93.957C190.693 92.3223 191.739 90.5381 192.425 88.6045C193.128 86.6709 193.479 84.7285 193.479 82.7773V76.291H199.175V82.7773C199.175 84.6934 199.491 86.5391 200.124 88.3145C200.774 90.0723 201.759 91.6719 203.077 93.1133C204.395 94.5547 206.03 95.7148 207.981 96.5938L204.712 101.129C202.761 100.215 201.082 98.9932 199.676 97.4639C198.287 95.9346 197.188 94.168 196.38 92.1641C195.501 94.4316 194.305 96.4443 192.794 98.2021C191.282 99.9424 189.471 101.305 187.362 102.289L184.145 97.8594ZM193.321 104.451H199.175V114.998H226.544V119.744H193.321V104.451ZM203.71 84.3594H210.091V73.8652H215.68V107.299H210.091V89.1582H203.71V84.3594ZM268.404 120.746H262.604V95.0117H253.639V90.2656H262.604V73.0215H268.404V120.746ZM230.594 77.1348H252.9V81.9336H236.5V90.4766H251.002V95.1172H236.5V104.926C240.35 104.908 243.716 104.812 246.599 104.636C249.481 104.46 252.391 104.135 255.326 103.66L255.906 108.406C252.619 108.898 249.341 109.241 246.071 109.435C242.819 109.628 238.908 109.742 234.338 109.777H230.594V77.1348ZM311.109 99.3359H296.976V110.252H315.96V115.051H272.402V110.252H291.175V99.3359H277.675V76.5547H310.739V81.248H283.529V94.6953H311.109V99.3359ZM333.985 84.4648C333.967 87.4531 334.424 90.3359 335.356 93.1133C336.288 95.8906 337.641 98.3604 339.416 100.522C341.209 102.667 343.336 104.275 345.797 105.348L342.264 110.041C339.627 108.758 337.36 106.912 335.461 104.504C333.563 102.096 332.095 99.292 331.058 96.0928C329.986 99.4854 328.474 102.474 326.523 105.058C324.572 107.624 322.26 109.584 319.588 110.938L315.897 106.191C318.411 105.014 320.581 103.291 322.41 101.023C324.238 98.7559 325.626 96.1807 326.576 93.2979C327.525 90.415 328.008 87.4707 328.026 84.4648V76.8711H333.985V84.4648ZM340.524 88.4199H350.543V73.0215H356.344V120.746H350.543V93.166H340.524V88.4199ZM386.972 79.4023V80.0352C386.937 82.3906 386.849 84.5967 386.709 86.6533C386.568 88.6924 386.269 90.9512 385.812 93.4297L380.011 92.9023C380.433 90.6875 380.723 88.666 380.881 86.8379C381.057 85.0098 381.163 83.1992 381.198 81.4062H362.662V76.5547H386.972V79.4023ZM360.79 97.2266C364.622 97.1914 367.408 97.1562 369.148 97.1211V87.418H374.949V96.9365C380.591 96.6904 385.461 96.2773 389.556 95.6973L389.873 99.916C385.461 100.707 380.829 101.234 375.977 101.498C371.126 101.762 365.914 101.902 360.341 101.92L359.814 97.2266H360.79ZM366.933 105.559H372.839V114.998H399.892V119.744H366.933V105.559ZM392.351 73.0215H398.363V87.8926H404.533V92.7969H398.363V108.723H392.351V73.0215Z" fill="white"/>
<path d="M49.6094 56.6934H44.0195V32.3828H38.6406V54.2676H33.2617V9.91797H38.6406V27.6895H44.0195V9.02148H49.6094V56.6934ZM10.0586 14.6641H27.8828V19.4102H15.9648V40.6094C18.7246 40.5742 21.2207 40.4688 23.4531 40.293C25.6855 40.1172 27.9531 39.8184 30.2559 39.3965L30.6777 44.1953C28.0234 44.7227 25.4131 45.0742 22.8467 45.25C20.2979 45.4258 17.1074 45.5312 13.2754 45.5664H10.0586V14.6641ZM90.6789 16.1934C90.6613 19.3223 90.5822 22.0469 90.4416 24.3672C90.301 26.6699 89.9582 29.3066 89.4133 32.2773H96.0051V37.0234H77.0734V56.7461H71.1672V37.0234H52.552V32.2773H83.4543C84.0344 29.3945 84.4035 26.7754 84.5617 24.4199C84.7375 22.0645 84.8254 19.4805 84.8254 16.668H57.6672V11.9219H90.6789V16.1934ZM123.258 18.0391H96.6273V13.3984H107.28V8.59961H113.133V13.3984H123.258V18.0391ZM99.1059 29.166C99.1059 27.4082 99.5805 25.8438 100.53 24.4727C101.479 23.084 102.788 22.0117 104.458 21.2559C106.146 20.4824 108.036 20.0957 110.127 20.0957C112.254 20.0957 114.162 20.4824 115.849 21.2559C117.554 22.0117 118.89 23.084 119.857 24.4727C120.824 25.8438 121.307 27.4082 121.307 29.166C121.307 30.8887 120.824 32.4355 119.857 33.8066C118.89 35.1602 117.554 36.2324 115.849 37.0234C114.162 37.7969 112.254 38.1836 110.127 38.1836C108.036 38.1836 106.146 37.7969 104.458 37.0234C102.788 36.2324 101.479 35.1602 100.53 33.8066C99.5805 32.4355 99.1059 30.8887 99.1059 29.166ZM103.957 41.7168H136.442V56.6934H130.588V46.3574H103.957V41.7168ZM104.59 29.166C104.59 30.0625 104.819 30.8535 105.276 31.5391C105.75 32.207 106.401 32.7256 107.227 33.0947C108.071 33.4639 109.037 33.6484 110.127 33.6484C111.217 33.6484 112.193 33.4639 113.054 33.0947C113.915 32.7256 114.592 32.207 115.084 31.5391C115.577 30.8535 115.823 30.0625 115.823 29.166C115.823 28.2344 115.577 27.417 115.084 26.7139C114.61 26.0107 113.933 25.4746 113.054 25.1055C112.193 24.7187 111.217 24.5254 110.127 24.5254C108.475 24.5254 107.13 24.9473 106.093 25.791C105.074 26.6348 104.573 27.7598 104.59 29.166ZM123.522 29.166H130.588V24.7363H123.575V20.0957H130.588V9.02148H136.442V39.291H130.588V33.9121H123.522V29.166ZM180.201 43.8789H174.295V9.07422H180.201V43.8789ZM140.545 32.6465C143.041 31.7676 145.168 30.4932 146.925 28.8232C148.683 27.1357 150.002 25.2197 150.88 23.0752C151.777 20.9131 152.216 18.6719 152.199 16.3516V11.7109H158.263V16.3516C158.246 18.6016 158.668 20.7461 159.529 22.7852C160.408 24.8242 161.709 26.6348 163.431 28.2168C165.154 29.7812 167.246 30.9766 169.707 31.8027L166.701 36.4434C164.029 35.5117 161.726 34.1406 159.793 32.3301C157.859 30.502 156.356 28.3486 155.284 25.8701C154.212 28.542 152.682 30.8623 150.696 32.8311C148.71 34.7998 146.345 36.2852 143.603 37.2871L140.545 32.6465ZM148.666 40.5566H154.572V50.998H181.519V55.7441H148.666V40.5566ZM223.169 35.3359H209.036V46.252H228.02V51.0508H184.462V46.252H203.235V35.3359H189.735V12.5547H222.8V17.248H195.589V30.6953H223.169V35.3359ZM246.467 20.4648C246.449 23.4004 246.933 26.2568 247.917 29.0342C248.901 31.8115 250.325 34.2812 252.188 36.4434C254.052 38.6055 256.24 40.2227 258.754 41.2949L255.273 45.9883C252.584 44.7402 250.237 42.9297 248.233 40.5566C246.247 38.166 244.691 35.3799 243.566 32.1982C242.441 35.626 240.851 38.6318 238.794 41.2158C236.755 43.7998 234.32 45.7598 231.49 47.0957L227.904 42.1914C230.488 41.084 232.729 39.4141 234.628 37.1816C236.526 34.9316 237.977 32.3564 238.979 29.4561C239.98 26.5557 240.49 23.5586 240.508 20.4648V12.8711H246.467V20.4648ZM262.182 9.02148H268.088V56.7461H262.182V9.02148ZM52.0352 101.709H8.58203V97.0156H27.3027V92.4277H14.2246V74.1816H20.0254V78.9277H40.5918V74.1816H46.3926V92.4277H33.209V97.0156H52.0352V101.709ZM13.3809 105.506H46.709V120.693H40.8555V110.146H13.3809V105.506ZM40.5918 87.7344V83.3047H20.0254V87.7344H40.5918ZM90.1516 84.7812H96.7961V89.6328H90.1516V100.865H84.298V73.0215H90.1516V84.7812ZM52.6047 77.4512H63.8371V72.6523H69.6906V77.4512H80.8703V82.1445H52.6047V77.4512ZM55.0305 92.1641C55.0305 90.4941 55.5227 89.0264 56.507 87.7607C57.4914 86.4951 58.8625 85.5195 60.6203 84.834C62.3957 84.1309 64.4348 83.7793 66.7375 83.7793C69.0051 83.7793 71.0178 84.1309 72.7756 84.834C74.551 85.5195 75.9309 86.4951 76.9152 87.7607C77.8996 89.0264 78.3918 90.4941 78.3918 92.1641C78.3918 93.834 77.8996 95.3018 76.9152 96.5674C75.9309 97.833 74.551 98.8174 72.7756 99.5205C71.0178 100.206 69.0051 100.549 66.7375 100.549C64.4348 100.549 62.3957 100.206 60.6203 99.5205C58.8625 98.835 57.4914 97.8594 56.507 96.5938C55.5227 95.3105 55.0305 93.834 55.0305 92.1641ZM59.3547 102.764H65.1555V106.877H84.298V102.764H90.1516V120.113H59.3547V102.764ZM60.7258 92.1641C60.7082 93.4297 61.2443 94.4229 62.3342 95.1436C63.4416 95.8643 64.9094 96.2246 66.7375 96.2246C68.5656 96.2246 70.0334 95.8643 71.1408 95.1436C72.2482 94.4229 72.802 93.4297 72.802 92.1641C72.802 90.916 72.2482 89.9316 71.1408 89.2109C70.0334 88.4727 68.5656 88.1035 66.7375 88.1035C64.9094 88.1035 63.4416 88.4727 62.3342 89.2109C61.2443 89.9316 60.7082 90.916 60.7258 92.1641ZM84.298 115.473V111.412H65.1555V115.473H84.298ZM123.258 82.0391H96.6273V77.3984H107.28V72.5996H113.133V77.3984H123.258V82.0391ZM99.1059 93.166C99.1059 91.4082 99.5805 89.8438 100.53 88.4727C101.479 87.084 102.788 86.0117 104.458 85.2559C106.146 84.4824 108.036 84.0957 110.127 84.0957C112.254 84.0957 114.162 84.4824 115.849 85.2559C117.554 86.0117 118.89 87.084 119.857 88.4727C120.824 89.8438 121.307 91.4082 121.307 93.166C121.307 94.8887 120.824 96.4355 119.857 97.8066C118.89 99.1602 117.554 100.232 115.849 101.023C114.162 101.797 112.254 102.184 110.127 102.184C108.036 102.184 106.146 101.797 104.458 101.023C102.788 100.232 101.479 99.1602 100.53 97.8066C99.5805 96.4355 99.1059 94.8887 99.1059 93.166ZM103.957 105.717H136.442V120.693H130.588V110.357H103.957V105.717ZM104.59 93.166C104.59 94.0625 104.819 94.8535 105.276 95.5391C105.75 96.207 106.401 96.7256 107.227 97.0947C108.071 97.4639 109.037 97.6484 110.127 97.6484C111.217 97.6484 112.193 97.4639 113.054 97.0947C113.915 96.7256 114.592 96.207 115.084 95.5391C115.577 94.8535 115.823 94.0625 115.823 93.166C115.823 92.2344 115.577 91.417 115.084 90.7139C114.61 90.0107 113.933 89.4746 113.054 89.1055C112.193 88.7188 111.217 88.5254 110.127 88.5254C108.475 88.5254 107.13 88.9473 106.093 89.791C105.074 90.6348 104.573 91.7598 104.59 93.166ZM123.522 93.166H130.588V88.7363H123.575V84.0957H130.588V73.0215H136.442V103.291H130.588V97.9121H123.522V93.166ZM180.201 107.879H174.295V73.0742H180.201V107.879ZM140.545 96.6465C143.041 95.7676 145.168 94.4932 146.925 92.8232C148.683 91.1357 150.002 89.2197 150.88 87.0752C151.777 84.9131 152.216 82.6719 152.199 80.3516V75.7109H158.263V80.3516C158.246 82.6016 158.668 84.7461 159.529 86.7852C160.408 88.8242 161.709 90.6348 163.431 92.2168C165.154 93.7812 167.246 94.9766 169.707 95.8027L166.701 100.443C164.029 99.5117 161.726 98.1406 159.793 96.3301C157.859 94.502 156.356 92.3486 155.284 89.8701C154.212 92.542 152.682 94.8623 150.696 96.8311C148.71 98.7998 146.345 100.285 143.603 101.287L140.545 96.6465ZM148.666 104.557H154.572V114.998H181.519V119.744H148.666V104.557ZM225.225 108.723H219.636V73.0215H225.225V108.723ZM184.145 97.8594C186.184 96.875 187.898 95.5742 189.287 93.957C190.693 92.3223 191.739 90.5381 192.425 88.6045C193.128 86.6709 193.479 84.7285 193.479 82.7773V76.291H199.175V82.7773C199.175 84.6934 199.491 86.5391 200.124 88.3145C200.774 90.0723 201.759 91.6719 203.077 93.1133C204.395 94.5547 206.03 95.7148 207.981 96.5938L204.712 101.129C202.761 100.215 201.082 98.9932 199.676 97.4639C198.287 95.9346 197.188 94.168 196.38 92.1641C195.501 94.4316 194.305 96.4443 192.794 98.2021C191.282 99.9424 189.471 101.305 187.362 102.289L184.145 97.8594ZM193.321 104.451H199.175V114.998H226.544V119.744H193.321V104.451ZM203.71 84.3594H210.091V73.8652H215.68V107.299H210.091V89.1582H203.71V84.3594ZM268.404 120.746H262.604V95.0117H253.639V90.2656H262.604V73.0215H268.404V120.746ZM230.594 77.1348H252.9V81.9336H236.5V90.4766H251.002V95.1172H236.5V104.926C240.35 104.908 243.716 104.812 246.599 104.636C249.481 104.46 252.391 104.135 255.326 103.66L255.906 108.406C252.619 108.898 249.341 109.241 246.071 109.435C242.819 109.628 238.908 109.742 234.338 109.777H230.594V77.1348ZM311.109 99.3359H296.976V110.252H315.96V115.051H272.402V110.252H291.175V99.3359H277.675V76.5547H310.739V81.248H283.529V94.6953H311.109V99.3359ZM333.985 84.4648C333.967 87.4531 334.424 90.3359 335.356 93.1133C336.288 95.8906 337.641 98.3604 339.416 100.522C341.209 102.667 343.336 104.275 345.797 105.348L342.264 110.041C339.627 108.758 337.36 106.912 335.461 104.504C333.563 102.096 332.095 99.292 331.058 96.0928C329.986 99.4854 328.474 102.474 326.523 105.058C324.572 107.624 322.26 109.584 319.588 110.938L315.897 106.191C318.411 105.014 320.581 103.291 322.41 101.023C324.238 98.7559 325.626 96.1807 326.576 93.2979C327.525 90.415 328.008 87.4707 328.026 84.4648V76.8711H333.985V84.4648ZM340.524 88.4199H350.543V73.0215H356.344V120.746H350.543V93.166H340.524V88.4199ZM386.972 79.4023V80.0352C386.937 82.3906 386.849 84.5967 386.709 86.6533C386.568 88.6924 386.269 90.9512 385.812 93.4297L380.011 92.9023C380.433 90.6875 380.723 88.666 380.881 86.8379C381.057 85.0098 381.163 83.1992 381.198 81.4062H362.662V76.5547H386.972V79.4023ZM360.79 97.2266C364.622 97.1914 367.408 97.1562 369.148 97.1211V87.418H374.949V96.9365C380.591 96.6904 385.461 96.2773 389.556 95.6973L389.873 99.916C385.461 100.707 380.829 101.234 375.977 101.498C371.126 101.762 365.914 101.902 360.341 101.92L359.814 97.2266H360.79ZM366.933 105.559H372.839V114.998H399.892V119.744H366.933V105.559ZM392.351 73.0215H398.363V87.8926H404.533V92.7969H398.363V108.723H392.351V73.0215Z" fill="url(#paint0_linear_208_6848)"/>
</g>
<defs>
<filter id="filter0_d_208_6848" x="0.782031" y="0.799609" width="411.951" height="128.146" filterUnits="userSpaceOnUse" color-interpolation-filters="sRGB">
<feFlood flood-opacity="0" result="BackgroundImageFix"/>
<feColorMatrix in="SourceAlpha" type="matrix" values="0 0 0 0 0 0 0 0 0 0 0 0 0 0 0 0 0 0 127 0" result="hardAlpha"/>
<feOffset dx="0.2" dy="0.2"/>
<feGaussianBlur stdDeviation="4"/>
<feComposite in2="hardAlpha" operator="out"/>
<feColorMatrix type="matrix" values="0 0 0 0 0 0 0 0 0 0 0 0 0 0 0 0 0 0 0.6 0"/>
<feBlend mode="normal" in2="BackgroundImageFix" result="effect1_dropShadow_208_6848"/>
<feBlend mode="normal" in="SourceGraphic" in2="effect1_dropShadow_208_6848" result="shape"/>
</filter>
<linearGradient id="paint0_linear_208_6848" x1="7" y1="15.5" x2="406" y2="116" gradientUnits="userSpaceOnUse">
<stop stop-color="#1CCEFF"/>
<stop offset="1" stop-color="#24DB51"/>
</linearGradient>
</defs>
</svg>
