<svg width="32" height="32" viewBox="0 0 32 32" fill="none" xmlns="http://www.w3.org/2000/svg">
<rect x="0.5" y="0.5" width="31" height="31" rx="15.5" fill="white"/>
<rect x="0.5" y="0.5" width="31" height="31" rx="15.5" stroke="#D8D8D8"/>
<path d="M13.0317 22.5005C19.0694 22.5005 22.3718 17.4982 22.3718 13.1603C22.3718 13.0182 22.3718 12.8768 22.3622 12.736C23.0047 12.2713 23.5593 11.6959 24 11.0368C23.4009 11.3024 22.7654 11.4765 22.1146 11.5533C22.7999 11.1431 23.3128 10.4978 23.5578 9.73759C22.9134 10.12 22.2084 10.3895 21.4733 10.5344C20.9783 10.0081 20.3237 9.65961 19.6108 9.54284C18.8978 9.42607 18.1663 9.54753 17.5293 9.88842C16.8923 10.2293 16.3855 10.7706 16.0872 11.4286C15.7888 12.0866 15.7157 12.8246 15.879 13.5283C14.5739 13.4628 13.2972 13.1237 12.1316 12.5328C10.9661 11.9419 9.93784 11.1126 9.1136 10.0985C8.69382 10.8212 8.56525 11.6767 8.75407 12.4908C8.94288 13.305 9.43489 14.0165 10.1299 14.4806C9.60749 14.4653 9.09643 14.3244 8.64 14.0697V14.1113C8.64021 14.8692 8.90257 15.6037 9.38258 16.1903C9.86259 16.7768 10.5307 17.1792 11.2736 17.3293C10.7903 17.4611 10.2832 17.4804 9.79136 17.3856C10.0012 18.0378 10.4096 18.6081 10.9595 19.0169C11.5094 19.4256 12.1732 19.6523 12.8582 19.6653C12.1776 20.2003 11.3982 20.5958 10.5646 20.8293C9.73096 21.0627 8.85948 21.1296 8 21.0259C9.50122 21.9893 11.2479 22.5002 13.0317 22.4979" fill="#1DA1F2"/>
</svg>
